<svg xmlns="http://www.w3.org/2000/svg" xmlns:xlink="http://www.w3.org/1999/xlink" width="500" zoomAndPan="magnify" viewBox="0 0 375 374.999991" height="500" preserveAspectRatio="xMidYMid meet" version="1.0"><defs><g/><clipPath id="330046da0d"><path d="M 29.195312 29.195312 L 296 29.195312 L 296 325 L 29.195312 325 Z M 29.195312 29.195312 " clip-rule="nonzero"/></clipPath><clipPath id="6447af9aff"><path d="M 113 95 L 345.695312 95 L 345.695312 345.695312 L 113 345.695312 Z M 113 95 " clip-rule="nonzero"/></clipPath></defs><g clip-path="url(#330046da0d)"><path fill="#d5000f" d="M 108.300781 122.222656 C 108.300781 94.277344 130.953125 71.625 158.894531 71.625 L 295.367188 71.625 C 267.09375 45.292969 229.179688 29.175781 187.496094 29.175781 C 100.058594 29.175781 29.175781 100.058594 29.175781 187.496094 C 29.175781 246.082031 61 297.230469 108.300781 324.609375 L 108.300781 122.222656 " fill-opacity="1" fill-rule="nonzero"/></g><g clip-path="url(#6447af9aff)"><path fill="#005ad8" d="M 316.277344 95.390625 C 309.902344 111.121094 294.484375 122.222656 276.46875 122.222656 L 199.484375 122.222656 C 175.769531 122.222656 155.238281 138.695312 150.09375 161.84375 L 113.304688 327.378906 C 114.410156 327.96875 115.519531 328.539062 116.636719 329.105469 L 170.152344 195.546875 C 177.84375 176.347656 196.441406 163.765625 217.121094 163.765625 L 292.804688 163.765625 L 292.804688 163.898438 C 292.804688 187.617188 273.578125 206.84375 249.859375 206.84375 C 234.730469 206.84375 220.394531 213.613281 210.78125 225.300781 L 122.953125 332.097656 C 142.664062 340.910156 164.507812 345.816406 187.496094 345.816406 C 274.933594 345.816406 345.816406 274.933594 345.816406 187.496094 C 345.816406 153.140625 334.867188 121.339844 316.277344 95.390625 " fill-opacity="1" fill-rule="nonzero"/></g><g fill="#000000" fill-opacity="1"><g transform="translate(146.027489, 108.490627)"><g><path d="M 0.203125 0 L 3.953125 -23.625 L 21.5 -23.625 L 20.421875 -16.8125 L 10.703125 -16.8125 L 10.21875 -13.90625 L 18.96875 -13.90625 L 17.921875 -7.25 L 9.1875 -7.25 L 8 0 Z M 0.203125 0 "/></g></g></g><g fill="#000000" fill-opacity="1"><g transform="translate(174.109881, 108.490627)"><g><path d="M 9.3125 0.546875 C 7.46875 0.546875 5.757812 0.335938 4.1875 -0.078125 C 2.613281 -0.492188 1.226562 -1.0625 0.03125 -1.78125 L 1.109375 -8.53125 C 2.441406 -7.570312 3.78125 -6.90625 5.125 -6.53125 C 6.476562 -6.15625 7.738281 -5.96875 8.90625 -5.96875 C 10.976562 -5.96875 12.046875 -6.34375 12.109375 -7.09375 C 12.179688 -7.539062 11.960938 -7.914062 11.453125 -8.21875 C 10.953125 -8.519531 10.289062 -8.8125 9.46875 -9.09375 C 8.644531 -9.375 7.773438 -9.710938 6.859375 -10.109375 C 5.953125 -10.503906 5.113281 -11.007812 4.34375 -11.625 C 3.582031 -12.25 3 -13.03125 2.59375 -13.96875 C 2.1875 -14.914062 2.085938 -16.085938 2.296875 -17.484375 C 2.546875 -18.992188 3.171875 -20.242188 4.171875 -21.234375 C 5.171875 -22.222656 6.394531 -22.957031 7.84375 -23.4375 C 9.300781 -23.925781 10.804688 -24.171875 12.359375 -24.171875 C 14.015625 -24.171875 15.59375 -23.984375 17.09375 -23.609375 C 18.59375 -23.234375 19.894531 -22.734375 21 -22.109375 L 19.984375 -15.59375 C 18.898438 -16.3125 17.734375 -16.84375 16.484375 -17.1875 C 15.234375 -17.539062 14.023438 -17.71875 12.859375 -17.71875 C 11.148438 -17.675781 10.257812 -17.304688 10.1875 -16.609375 C 10.164062 -16.222656 10.414062 -15.890625 10.9375 -15.609375 C 11.457031 -15.328125 12.125 -15.039062 12.9375 -14.75 C 13.757812 -14.457031 14.625 -14.109375 15.53125 -13.703125 C 16.445312 -13.296875 17.28125 -12.785156 18.03125 -12.171875 C 18.789062 -11.566406 19.363281 -10.796875 19.75 -9.859375 C 20.144531 -8.929688 20.234375 -7.796875 20.015625 -6.453125 C 19.722656 -4.597656 19.050781 -3.164062 18 -2.15625 C 16.957031 -1.144531 15.679688 -0.441406 14.171875 -0.046875 C 12.660156 0.347656 11.039062 0.546875 9.3125 0.546875 Z M 9.3125 0.546875 "/></g></g></g><g fill="#000000" fill-opacity="1"><g transform="translate(203.13728, 108.490627)"><g><path d="M -1.6875 0 L 10.875 -23.625 L 19.265625 -23.625 L 24.375 0 L 16.734375 0 L 16.203125 -3.140625 L 7.859375 -3.140625 L 6.34375 0 Z M 10.5625 -8.78125 L 15.328125 -8.78125 L 14.484375 -13.875 C 14.410156 -14.34375 14.351562 -14.804688 14.3125 -15.265625 C 14.269531 -15.734375 14.234375 -16.28125 14.203125 -16.90625 C 14.046875 -16.300781 13.878906 -15.765625 13.703125 -15.296875 C 13.523438 -14.835938 13.320312 -14.375 13.09375 -13.90625 Z M 10.5625 -8.78125 "/></g></g></g></svg>